<?xml version="1.0" encoding="UTF-8"?>
<svg id="Ebene_2" xmlns="http://www.w3.org/2000/svg" viewBox="0 0 400 400">
  <defs>
    <style>
      .cls-1 {
        fill: #fff;
      }

      .cls-2 {
        fill: #e63312;
      }
    </style>
  </defs>
  <rect class="cls-2" width="400" height="400" rx="50" ry="50"/>
  <g id="svg7671">
    <path id="path7073" class="cls-1" d="M367.756143,200.213739c-.759892-6.351136-5.628748-27.149479-36.174275-27.965656-14.165764-.375253-29.973254,6.107232-48.304331,19.813307-2.24213-1.735535-4.559324-3.536748-6.942196-5.384866-3.030153-2.345326-6.163502-4.784461-9.353157-7.261129,7.617623-7.964722,15.948218-18.687556,16.229647-29.71057.150101-5.731972-1.876278-10.985503-5.853942-15.17894-4.850168-5.122189-10.779118-7.824008-17.130268-7.824008-12.223823,0-22.37439,9.719031-28.444083,15.535433-.75052.721982-1.425946,1.369669-2.016978,1.904402-1.02259.928752-2.092028,1.904402-3.152137,2.87068-6.444974-5.43177-12.655353-10.835395-18.359208-16.107692,22.918532-26.333303,22.421324-44.589318,17.768176-55.40594-5.863286-13.631052-19.98216-19.381765-30.901963-18.931477-12.233224.525356-23.19056,8.274304-28.603571,20.216714-6.172903,13.621636-3.977664,29.804374,5.722614,42.234607,3.048926,3.902621,6.717002,8.077291,11.135583,12.636608-4.465471,4.840746-9.409449,10.197472-14.587922,15.788731-1.116357-.816176-2.204597-1.622966-3.274064-2.392238l-.853687-.619163c-4.934562-3.611798-14.109466-10.328814-24.306917-10.328814-6.03216,0-11.473303,2.373479-15.732439,6.848351-4.821972,5.065904-7.242356,11.098079-7.017211,17.439835.412785,11.34199,8.94973,20.366799,15.33842,26.173822.159131.150101.337713.300202.506616.460061-5.187881,5.394252-10.159947,10.488288-14.672373,15.000693-9.071707-6.069693-26.108151-15.432237-44.833232-15.432237-7.889661,0-15.338418,1.669871-22.158629,4.943949-11.942396,5.750732-18.940845,15.385332-19.719487,27.111947-.769262,11.754775,5.347353,24.691585,14.569157,30.770664,6.257329,4.127765,13.133801,6.219808,20.441845,6.219808,22.327486,0,42.478523-19.588148,53.407728-30.282829,4.352946,3.311596,9.165538,7.111028,14.231443,11.210648-3.274071,3.161495-6.473091,6.24794-9.578302,9.231202-1.876263,1.810585-11.229421,11.454573-10.966758,23.762833.140301,6.576287,3.011401,12.514653,8.30245,17.195917,4.49366,3.968292,9.944161,6.06032,15.769943,6.06032,8.508828,0,17.674366-4.334158,27.233916-12.889905,3.152137-2.823775,6.473091-5.853928,9.887898-9.02481,5.262924,4.615601,10.375705,9.146765,15.13202,13.434018-2.917599,3.28345-5.300443,6.144758-7.204852,8.64017-10.478916,13.687301-10.891686,28.875642-1.116357,41.671723,5.159714,6.773293,14.118874,10.807249,23.950438,10.807249,6.285472,0,12.251997-1.651112,16.80192-4.653133,6.942139-4.568682,11.942394-12.092509,13.405872-20.132261,1.379027-7.664513-.421801-15.207085-5.206633-21.839664-.731761-1.003803-2.748738-3.790045-15.272749-15.507287,4.230976-4.390449,8.865308-9.090473,13.752994-13.987518,1.322735,1.097612,2.607996,2.176466,3.836978,3.189641,8.152349,6.763921,20.348054,14.82246,32.159121,14.82246h0c7.139159,0,13.34018-2.889439,17.927635-8.349355,7.139174-8.508842,7.814643-18.82827,1.932569-29.063261-3.677462-6.369909-9.081101-11.435799-13.884336-15.54482l-3.733754-3.2084c4.981496-4.821994,10.225618-9.709651,15.572937-14.28772,1.088226.872461,2.157707,1.716776,3.170896,2.532945,15.601097,12.514653,32.215355,24.09118,47.985326,24.09118,2.711206,0,5.347319-.356494,7.824001-1.041321,15.835621-4.399836,27.449696-22.83408,25.357639-40.264536M67.076109,235.675426c-3.846329,0-7.364329-1.078853-10.741587-3.302224-3.011403-1.988832-6.960925-8.142962-6.538782-14.522258.337736-5.103422,3.574284-9.174911,9.625207-12.092495,4.418592-2.120174,9.306256-3.199027,14.522254-3.199027,12.205064,0,23.987984,5.61939,31.690023,10.310041-9.475113,9.165524-24.691578,22.805935-38.55714,22.805935M241.615159,157.529205c.694242-.628921,1.491638-1.397807,2.392259-2.251509,3.874454-3.705615,11.079306-10.610258,16.22026-10.610258.99443,0,2.382858.252919,4.306026,2.289034.79741.834943.938139,1.472865.91938,2.270268-.141057,5.337961-7.082882,13.396493-12.627235,19.08156-4.090233-3.217787-8.199282-6.501244-12.280114-9.803461.356479-.318961.721989-.656689,1.069481-.975657M232.946885,238.790002l-.553129.553114c-1.285217,1.285232-2.579836,2.561091-3.855695,3.827578-4.474872-3.733754-9.231188-7.720805-14.146991-11.857957,4.437354-4.37169,8.855949-8.733994,13.190136-13.040006,4.803235,4.080861,9.475084,8.077298,13.931255,11.895489-.347478.346736-.70323.712973-1.041307,1.06008-2.645528,2.673674-5.159714,5.216005-7.523799,7.561331M187.4573,208.497416c4.474872-4.29664,8.931-8.56512,13.330822-12.76795,4.362304,3.621185,8.743381,7.298647,13.105684,10.95735-4.362304,4.315399-8.780899,8.687089-13.218253,13.058765-4.381063-3.714995-8.809016-7.476894-13.218253-11.24818M187.84231,232.307153c-4.390421,4.277866-8.733966,8.461938-12.974342,12.505266-4.446712-3.818191-8.912227-7.608236-13.330822-11.313844,4.268494-4.137152,8.612039-8.321209,12.974342-12.533412,4.437354,3.790045,8.902868,7.589477,13.330822,11.34199M173.836048,196.798932c-5.075305-4.381063-10.028584-8.696462-14.71925-12.833614,3.902614-4.137152,7.824001-8.321216,11.698498-12.477127,5.112781,3.996431,10.507047,8.302443,16.060801,12.814862-4.306026,4.118393-8.66833,8.293063-13.039992,12.495893M213.837928,183.327382c4.615615-4.362304,9.109261-8.583886,13.405872-12.580324,4.212217,3.424179,8.461952,6.829592,12.683513,10.178706-4.268494,4.202816-8.705848,8.593265-13.283946,13.124444-4.249735-3.57428-8.527587-7.167305-12.805497-10.722826M182.673195,84.270243c2.654929-5.863306,7.598849-9.512636,13.208895-9.756554.16886-.007475.34675-.007475.52534-.007475,4.878285,0,11.023014,2.805021,13.321464,8.161744,3.527375,8.171103-1.669899,21.070394-14.287734,35.761513-3.677476-3.83695-6.773279-7.364329-9.259348-10.544576-5.638163-7.214235-6.942182-16.042024-3.508616-23.612735M196.107227,144.190515h0l.075093-.084815c5.40361,4.972088,11.191917,10.047379,17.186559,15.132042-4.324786,4.043342-8.809016,8.264925-13.43399,12.636608-5.816424-4.737556-11.492105-9.296866-16.886329-13.537214,4.615615-4.990854,9.03421-9.775315,13.058751-14.147005M144.810355,171.198881c-6.144736-5.591258-9.32499-10.122422-9.446974-13.462157-.014972-.572637-.075093-2.073277,2.063904-4.334165,1.060073-1.106999,1.904402-1.332144,2.92695-1.332144,4.437354,0,10.825994,4.671885,13.893679,6.914022l.928738.685212c.441287.309204.89122.647687,1.332136.975657-3.555493,3.808811-7.157926,7.645761-10.732184,11.42642-.318954-.291201-.646945-.581645-.966263-.872461M133.487146,210.581955c4.165284-4.202816,8.649564-8.818417,13.293304-13.649783,4.512405,3.977664,9.249947,8.114816,14.128232,12.327033-4.465514,4.306012-8.884067,8.574506-13.237012,12.786709-5.018971-4.071488-9.812847-7.889679-14.222042-11.295085l.121613-.112583-.084088-.052525s0-.003766-.000007-.003766ZM153.703829,264.477529c-8.452544,7.561331-13.631017,8.3775-15.460368,8.3775-1.547923,0-2.805023-.497579-4.071474-1.622966-1.941927-1.707389-2.213998-3.067685-2.232757-4.052715-.075093-3.255305,2.758097-7.767709,5.459902-10.375719,3.611784-3.471084,7.364304-7.101641,11.210633-10.807249,4.343545,3.630557,8.752739,7.364325,13.161962,11.135597-2.776856,2.570477-5.478661,5.028372-8.067897,7.345552M216.783687,307.443885c1.885636,2.617368,2.570477,5.234764,2.063897,7.992875-.572629,3.180254-2.776856,6.44496-5.619404,8.321209-1.651098,1.088226-4.306026,1.735535-7.101641,1.735535-4.240334,0-8.124232-1.501011-9.887898-3.818177-4.765716-6.238567-4.409194-12.495879,1.097641-19.700731,1.651098-2.14832,3.733754-4.653133,6.32299-7.570704,8.780899,8.208626,12.383325,12.026831,13.124444,13.040021M202.702431,269.224472l-.052497-.045036-.030086.030015c-4.465514-4.033956-9.249947-8.283691-14.193924-12.627221,4.306026-4.109006,8.69649-8.358741,13.133844-12.683513,4.953336,4.165298,9.737797,8.171108,14.268975,11.961153-4.643733,4.662506-9.062328,9.146765-13.124444,13.368354M260.099075,246.103328c2.392216,2.05451,7.38307,6.32299,10.009825,10.882314,2.598652,4.512405,1.425946,6.548142-.121613,8.39626-1.200809,1.42596-2.476668,2.007591-4.381063,2.007591-4.962694,0-12.777322-4.015197-20.892153-10.741585-.769279-.64768-1.566689-1.304005-2.382858-1.988832.834928-.825556,1.679258-1.660484,2.514186-2.495427l.562858-.55387c2.392259-2.373472,4.94392-4.962708,7.626967-7.6739.675469-.685212,1.37907-1.397815,2.08267-2.101415l4.981453,4.268494-.000271.000371ZM254.217016,217.509115c-4.437354-3.799432-9.090488-7.777096-13.884321-11.857957,4.765716-4.72817,9.353157-9.249961,13.762352-13.593506,3.912015,3.048926,7.74895,6.022788,11.435828,8.884095,1.191408.928752,2.373457,1.838731,3.536734,2.739338-5.140955,4.531164-10.12245,9.231202-14.850592,13.82803M337.691818,223.156651c-.947511.262684-1.988861.403028-3.114605.403028-11.614046,0-28.978866-13.818657-36.67154-19.982174,12.730432-8.884095,23.631491-13.377727,32.506199-13.377727.225137,0,.460061.007475.694242.007475,8.03978.21615,17.852642,2.504814,19.015904,12.176932,1.031963,8.612039-5.009627,18.715687-12.430201,20.770198"/>
  </g>
</svg>